<svg width="699.3" height="76.528" viewBox="0 0 699.3 76.528" xmlns="http://www.w3.org/2000/svg"><g id="svgGroup" stroke-linecap="round" fill-rule="evenodd" font-size="9pt" stroke="#000" stroke-width="0.25mm" fill="#ffffff" style="stroke:#000;stroke-width:0.25mm;fill:#ffffff"><path d="M 274.3 22.926 L 272.4 15.826 L 270.2 7.726 A 14.382 14.382 0 0 1 270.007 7.043 Q 269.848 6.42 269.811 5.979 A 3.027 3.027 0 0 1 269.8 5.726 Q 269.8 5.545 269.873 5.437 A 0.326 0.326 0 0 1 270 5.326 A 0.881 0.881 0 0 1 270.21 5.255 Q 270.308 5.234 270.422 5.228 A 1.684 1.684 0 0 1 270.5 5.226 L 273.6 5.226 Q 275.3 5.226 276 5.126 L 277.1 4.926 Q 278.1 4.626 278.45 5.226 A 2.697 2.697 0 0 1 278.617 5.579 Q 278.867 6.204 279.141 7.451 A 31.967 31.967 0 0 1 279.2 7.726 A 16.879 16.879 0 0 0 279.275 8.012 Q 279.603 9.224 281.003 14.091 A 2690.473 2690.473 0 0 0 281.2 14.776 Q 283 21.026 285.4 27.026 Q 287.3 32.926 288.9 36.826 L 290.6 41.226 L 291 39.926 L 292 37.126 A 14.364 14.364 0 0 0 292.298 36.32 Q 293.019 34.208 294.4 28.926 L 295.1 26.326 A 31.825 31.825 0 0 1 295.342 25.475 Q 295.714 24.225 296.43 22.047 A 344.717 344.717 0 0 1 296.9 20.626 Q 297.972 17.411 298.692 15.309 A 270.946 270.946 0 0 1 299.1 14.126 Q 299.483 13.284 299.983 11.797 A 62.631 62.631 0 0 0 300.3 10.826 Q 302.558 5.094 303.76 4.341 A 0.648 0.648 0 0 1 304.1 4.226 A 3.84 3.84 0 0 1 304.382 4.236 Q 304.811 4.268 304.976 4.405 A 0.345 0.345 0 0 1 305 4.426 Q 305.2 4.626 305.3 5.126 A 11 11 0 0 0 305.363 5.419 Q 305.429 5.71 305.496 5.913 A 3.218 3.218 0 0 0 305.5 5.926 A 44.576 44.576 0 0 0 305.664 6.562 Q 305.738 6.841 305.822 7.145 A 77.183 77.183 0 0 0 306 7.776 Q 306.3 8.826 306.5 10.126 A 6818.336 6818.336 0 0 0 307.888 13.731 Q 310.159 19.628 311.002 21.774 A 135.74 135.74 0 0 0 311.3 22.526 L 314.4 29.226 L 316.2 33.226 Q 316.385 32.672 316.569 32.374 A 1.69 1.69 0 0 1 316.6 32.326 L 317.6 29.826 A 4.244 4.244 0 0 0 317.689 29.499 Q 317.872 28.737 318.234 26.685 A 218.514 218.514 0 0 0 318.4 25.726 Q 319.1 21.326 319.6 19.426 Q 319.983 17.972 320.835 15.521 A 140.118 140.118 0 0 1 321.4 13.926 A 116.101 116.101 0 0 0 321.994 12.14 Q 322.777 9.715 323.021 8.493 A 7.449 7.449 0 0 0 323.1 8.026 Q 323.37 5.667 324.366 4.898 A 1.802 1.802 0 0 1 325.5 4.526 Q 327.1 4.126 329.1 4.126 A 15.726 15.726 0 0 1 329.504 4.131 Q 330.054 4.145 330.309 4.202 A 0.918 0.918 0 0 1 330.4 4.226 A 2.352 2.352 0 0 1 330.834 4.263 Q 331.556 4.399 331.598 5.046 A 1.262 1.262 0 0 1 331.6 5.126 L 331.4 6.326 L 330.5 9.126 Q 329.923 11.352 329.482 12.694 A 22.124 22.124 0 0 1 329.3 13.226 A 1608.941 1608.941 0 0 1 328.897 14.675 Q 328.538 15.964 328.1 17.526 Q 327.4 20.026 326.7 22.626 Q 325.358 27.904 324.337 31.421 A 133.842 133.842 0 0 1 324.1 32.226 A 37.393 37.393 0 0 0 323.794 33.567 Q 323.472 35.095 323.123 37.22 A 157.573 157.573 0 0 0 322.8 39.276 A 290.581 290.581 0 0 0 322.562 40.885 Q 322.162 43.647 322.108 44.505 A 3.653 3.653 0 0 0 322.1 44.726 Q 322.1 46.458 321.371 48.711 A 24.998 24.998 0 0 1 320.7 50.526 Q 320.292 51.752 319.549 55.379 A 219.066 219.066 0 0 0 319.2 57.126 Q 318.2 62.226 317.9 64.026 Q 317.075 69.472 316.658 70.901 A 2.174 2.174 0 0 1 316.5 71.326 Q 316.431 71.739 316.339 72.27 A 223.095 223.095 0 0 1 316.25 72.776 Q 316.1 73.626 315.95 74.026 Q 315.8 74.426 315.5 74.426 A 2.521 2.521 0 0 1 315.086 74.395 Q 314.867 74.358 314.696 74.28 A 1.015 1.015 0 0 1 314.35 74.026 Q 314 73.626 313.4 72.326 A 4.287 4.287 0 0 1 313.012 71.681 Q 311.981 69.695 309.3 62.626 A 63.505 63.505 0 0 1 308.939 61.667 Q 307.944 58.97 305.1 50.926 A 35.038 35.038 0 0 0 304.75 49.783 Q 304.338 48.506 303.712 46.832 A 126.129 126.129 0 0 0 303.1 45.226 L 301.7 41.526 L 300.3 44.326 Q 299.379 46.352 297.61 50.923 A 403.736 403.736 0 0 0 297.3 51.726 L 296.5 53.726 Q 295.3 57.226 292.7 68.026 L 292 70.926 A 9.308 9.308 0 0 1 291.169 73.06 A 10.457 10.457 0 0 1 291.05 73.276 A 6.192 6.192 0 0 1 290.792 73.696 Q 290.298 74.426 289.9 74.426 Q 289.2 74.426 288.85 73.926 A 2.712 2.712 0 0 1 288.641 73.566 Q 288.409 73.091 288.2 72.326 A 3.451 3.451 0 0 1 288.029 71.882 Q 287.613 70.608 286.8 66.626 Q 286.4 65.026 285.6 61.776 Q 284.911 58.977 284.519 57.847 A 7.464 7.464 0 0 0 284.4 57.526 Q 283.711 55.842 282.846 52.956 A 122.772 122.772 0 0 1 282.3 51.076 Q 281.273 47.44 280.979 46.329 A 22.81 22.81 0 0 1 280.9 46.026 Q 280.219 44.409 277.364 33.879 A 1256.611 1256.611 0 0 1 276.3 29.926 Q 275.7 28.026 275.2 26.176 Q 274.77 24.587 274.415 23.329 A 164.867 164.867 0 0 0 274.3 22.926 Z M 509.9 63.426 L 508.6 60.126 A 10.893 10.893 0 0 1 508.531 59.948 Q 508.225 59.139 507 55.726 A 616.561 616.561 0 0 0 506.476 54.196 Q 505.508 51.381 505.156 50.469 A 12.983 12.983 0 0 0 505.1 50.326 A 35.887 35.887 0 0 1 504.833 49.605 Q 504.404 48.408 503.616 46.067 A 581.459 581.459 0 0 1 503.1 44.526 A 84.422 84.422 0 0 1 502.705 43.427 Q 502.166 41.896 501.306 39.339 A 727.43 727.43 0 0 1 500.75 37.676 Q 499.346 33.463 498.629 31.822 A 10.624 10.624 0 0 0 498.4 31.326 Q 497.169 28.619 494.726 21.736 A 506.406 506.406 0 0 1 493.6 18.526 Q 493.4 17.926 493.25 17.526 A 2.861 2.861 0 0 1 493.16 17.246 Q 493.1 17.016 493.1 16.826 A 0.589 0.589 0 0 1 493.136 16.611 Q 493.237 16.354 493.617 16.329 A 1.292 1.292 0 0 1 493.7 16.326 L 496.3 16.326 A 1123.387 1123.387 0 0 0 498.231 16.325 Q 504.575 16.314 505.1 16.226 L 506 16.126 A 0.881 0.881 0 0 1 506.21 16.055 Q 506.308 16.034 506.422 16.028 A 1.684 1.684 0 0 1 506.5 16.026 A 0.728 0.728 0 0 1 507.1 16.323 A 1.244 1.244 0 0 1 507.25 16.576 Q 507.498 17.122 507.795 18.504 A 32.193 32.193 0 0 1 507.8 18.526 L 509.2 23.026 A 1554.077 1554.077 0 0 1 510.064 25.624 Q 511.775 30.789 512.1 31.926 L 513.4 35.926 Q 513.8 36.826 514.2 38.326 L 516 44.326 L 516.4 43.226 L 518.4 37.926 Q 518.629 37.469 518.945 36.604 A 35.859 35.859 0 0 0 519.15 36.026 Q 519.6 34.726 519.9 33.926 L 520.7 31.626 L 524.4 21.126 Q 525.1 19.226 526 17.376 A 10.478 10.478 0 0 1 526.33 16.748 Q 526.888 15.776 527.362 15.577 A 0.613 0.613 0 0 1 527.6 15.526 Q 528.262 15.526 528.567 15.795 A 0.739 0.739 0 0 1 528.6 15.826 Q 528.9 16.126 529.3 16.926 L 530.2 18.826 Q 530.456 19.424 531.844 22.321 A 923.998 923.998 0 0 0 532.35 23.376 A 58.849 58.849 0 0 1 535.05 29.957 A 53.206 53.206 0 0 1 535.4 31.026 L 538 36.726 L 539.5 40.126 A 17.166 17.166 0 0 0 539.717 39.482 Q 540.094 38.3 540.7 36.026 A 11.919 11.919 0 0 0 540.94 35.198 Q 541.186 34.233 541.387 32.913 A 37.115 37.115 0 0 0 541.4 32.826 Q 541.477 32.29 541.67 31.403 A 50.015 50.015 0 0 1 541.8 30.826 Q 542.1 29.526 542.4 28.426 Q 543 26.026 543.85 23.176 A 67.618 67.618 0 0 1 544.367 21.517 Q 544.861 20.005 545.298 18.965 A 18.068 18.068 0 0 1 545.4 18.726 Q 545.6 18.326 546 17.326 A 10.985 10.985 0 0 1 546.182 16.896 Q 546.453 16.295 546.672 16.056 A 0.93 0.93 0 0 1 546.7 16.026 A 1.045 1.045 0 0 1 547.009 15.809 A 0.94 0.94 0 0 1 547.4 15.726 Q 548.255 15.631 549.562 15.536 A 107.712 107.712 0 0 1 549.7 15.526 Q 551.1 15.426 552.2 15.426 A 10.096 10.096 0 0 1 552.558 15.432 Q 553.055 15.45 553.284 15.521 A 0.835 0.835 0 0 1 553.3 15.526 A 2.115 2.115 0 0 1 553.653 15.553 Q 554.278 15.659 554.299 16.189 A 0.941 0.941 0 0 1 554.3 16.226 A 0.57 0.57 0 0 1 554.294 16.291 Q 554.264 16.506 554.101 17.324 A 52.876 52.876 0 0 1 554.1 17.326 Q 553.8 17.926 553.4 19.526 A 2290.918 2290.918 0 0 1 553.164 20.305 Q 552.437 22.699 552.314 23.083 A 4.354 4.354 0 0 1 552.3 23.126 L 550.6 29.326 Q 548.635 36.999 547.983 38.981 A 12.108 12.108 0 0 1 547.9 39.226 Q 547.594 40.758 546.907 43.197 A 126.688 126.688 0 0 1 546.45 44.776 Q 545.483 48.046 544.983 49.576 A 46.108 46.108 0 0 1 544.9 49.826 Q 544.815 49.997 544.441 51.324 A 132.669 132.669 0 0 0 544.3 51.826 A 48.879 48.879 0 0 1 544.056 52.72 Q 543.7 53.976 543.4 54.726 Q 542.4 57.226 539.9 66.926 Q 538.2 72.926 538.1 73.026 Q 537.9 73.926 537.6 74.776 A 3.289 3.289 0 0 1 537.474 75.087 Q 537.219 75.626 536.9 75.626 A 1.571 1.571 0 0 1 536.656 75.609 Q 536.53 75.589 536.431 75.547 A 0.582 0.582 0 0 1 536.2 75.376 A 1.564 1.564 0 0 1 536.057 75.161 Q 535.944 74.958 535.85 74.676 A 6.515 6.515 0 0 0 535.525 73.877 A 5.995 5.995 0 0 0 535.5 73.826 A 2.39 2.39 0 0 1 535.256 73.414 Q 534.713 72.336 533.418 68.823 A 256.427 256.427 0 0 1 532.8 67.126 L 532 65.026 A 21.58 21.58 0 0 1 531.517 63.913 Q 530.688 61.867 529.4 57.926 L 528.4 55.126 Q 528.054 53.571 527.037 51.044 A 62.778 62.778 0 0 0 526.7 50.226 L 525.5 47.126 L 524.4 50.626 Q 524.109 51.208 523.872 52.053 A 14.657 14.657 0 0 0 523.7 52.726 Q 523.5 53.326 523.05 54.726 Q 522.6 56.126 522 57.526 L 516.9 72.626 Q 516.2 75.626 515.5 75.626 A 0.81 0.81 0 0 1 515.059 75.485 Q 514.773 75.3 514.486 74.876 A 4.695 4.695 0 0 1 514.3 74.576 A 9.271 9.271 0 0 1 513.449 72.598 A 8.621 8.621 0 0 1 513.4 72.426 Q 512.889 71.575 510.712 65.652 A 530.608 530.608 0 0 1 509.9 63.426 Z M 654 67.026 L 653.9 59.826 Q 653.9 43.448 654.267 40.922 A 3.785 3.785 0 0 1 654.3 40.726 A 26.468 26.468 0 0 0 654.334 39.944 Q 654.4 37.851 654.4 32.326 L 654.3 22.326 A 1436.246 1436.246 0 0 0 654.298 20.14 Q 654.289 13.76 654.218 12.784 A 1.157 1.157 0 0 0 654.2 12.626 A 5.172 5.172 0 0 1 654.166 12.29 Q 654.1 11.401 654.1 9.126 Q 654 6.626 654.1 4.076 A 61.128 61.128 0 0 1 654.141 3.185 Q 654.216 1.794 654.331 1.141 A 3.163 3.163 0 0 1 654.4 0.826 Q 654.4 0.026 655.3 0.026 A 2.425 2.425 0 0 1 655.792 0.079 A 3.157 3.157 0 0 1 656.15 0.176 A 3.062 3.062 0 0 0 656.601 0.291 A 2.364 2.364 0 0 0 657 0.326 Q 657.766 0.326 659.088 0.356 A 248.593 248.593 0 0 1 659.95 0.376 Q 661.9 0.426 663.2 0.326 L 663.7 0.326 A 2.802 2.802 0 0 1 664.009 0.342 Q 664.32 0.377 664.488 0.489 A 0.427 0.427 0 0 1 664.65 0.676 A 1.83 1.83 0 0 1 664.778 1.147 A 2.388 2.388 0 0 1 664.8 1.476 L 664.8 2.026 Q 664.891 2.849 664.858 3.922 A 20.314 20.314 0 0 1 664.85 4.126 A 19.165 19.165 0 0 0 664.836 4.648 Q 664.821 5.681 664.9 7.026 L 665 10.426 L 665 18.926 A 973.8 973.8 0 0 1 664.993 22.789 Q 664.967 29.378 664.842 31.25 A 8.664 8.664 0 0 1 664.8 31.726 L 664.7 34.726 Q 664.7 35.526 664.8 36.176 A 8.804 8.804 0 0 1 664.899 37.417 A 9.718 9.718 0 0 1 664.9 37.526 L 665 42.326 L 666.4 40.926 L 668.8 38.426 A 64.747 64.747 0 0 0 671.275 35.803 A 80.231 80.231 0 0 0 672.9 33.926 Q 675.2 31.326 676.5 30.026 A 7.947 7.947 0 0 1 677.055 29.301 Q 678.431 27.655 682.561 23.476 A 471.565 471.565 0 0 1 684.5 21.526 A 10.989 10.989 0 0 0 684.585 21.44 Q 684.979 21.035 686.881 19.056 A 4133.66 4133.66 0 0 0 687.15 18.776 A 24.452 24.452 0 0 1 688.145 17.794 Q 689.622 16.424 690.526 16.177 A 1.522 1.522 0 0 1 690.8 16.126 L 694.2 16.126 Q 694.765 16.221 694.798 16.669 A 0.777 0.777 0 0 1 694.8 16.726 Q 694.8 17.058 694.526 17.389 A 1.99 1.99 0 0 1 694.4 17.526 Q 694.229 17.697 693.475 18.598 A 158.283 158.283 0 0 0 693.2 18.926 Q 692.2 20.126 691.2 20.926 Q 689.745 22.381 687.265 25.008 A 535.449 535.449 0 0 0 685.65 26.726 Q 682 30.626 681.5 31.526 L 676.3 37.226 L 671.8 41.926 L 673.3 43.626 L 674.8 45.326 Q 677.6 48.626 679.3 50.326 A 7.912 7.912 0 0 1 679.755 50.779 Q 680.855 51.936 683.992 55.572 A 740.068 740.068 0 0 1 685.5 57.326 Q 689.686 62.291 690.46 62.991 A 2 2 0 0 0 690.5 63.026 Q 691.525 63.795 695.615 68.577 A 345.345 345.345 0 0 1 697.1 70.326 L 699.1 72.626 A 19.684 19.684 0 0 1 699.168 72.834 Q 699.282 73.189 699.298 73.298 A 0.209 0.209 0 0 1 699.3 73.326 A 0.449 0.449 0 0 1 699.044 73.73 Q 698.701 73.926 697.9 73.926 L 687 74.226 Q 686.237 74.226 685.678 74.052 A 2.707 2.707 0 0 1 685.35 73.926 A 3.17 3.17 0 0 1 684.919 73.68 Q 684.489 73.392 683.972 72.895 A 12.217 12.217 0 0 1 683.8 72.726 Q 683.5 72.426 678 65.726 L 672.8 59.426 A 48.698 48.698 0 0 1 671.587 58.165 Q 670.156 56.626 668.3 54.426 L 665.1 51.026 A 3.767 3.767 0 0 1 665.134 51.325 Q 665.195 52.069 665.2 53.988 A 135.074 135.074 0 0 1 665.2 54.326 A 107.849 107.849 0 0 1 665.197 55.231 Q 665.181 57.024 665.101 57.518 A 1.789 1.789 0 0 1 665.1 57.526 L 665.1 62.826 L 665.1 68.626 A 30.181 30.181 0 0 0 665.166 70.673 Q 665.241 71.77 665.4 72.726 A 0.746 0.746 0 0 1 665.453 72.871 Q 665.5 73.051 665.5 73.326 Q 665.5 73.595 665.414 73.762 A 0.476 0.476 0 0 1 665.2 73.976 A 1.245 1.245 0 0 1 664.935 74.071 Q 664.806 74.102 664.652 74.116 A 2.835 2.835 0 0 1 664.4 74.126 L 661 74.126 L 659 74.226 Q 656.8 74.426 655.8 74.426 Q 654.973 74.426 654.821 74.342 A 0.097 0.097 0 0 1 654.8 74.326 A 1.052 1.052 0 0 1 654.577 74.305 Q 654.256 74.235 654.208 73.937 A 0.702 0.702 0 0 1 654.2 73.826 A 2.083 2.083 0 0 1 654.23 73.483 A 2.796 2.796 0 0 1 654.3 73.176 Q 654.4 72.826 654.5 72.526 Q 654.582 71.953 654.395 70.572 A 29.682 29.682 0 0 0 654.3 69.926 A 558.062 558.062 0 0 1 654.23 69.29 Q 654.021 67.389 654.002 67.073 A 0.862 0.862 0 0 1 654 67.026 Z M 0.7 73.726 L 0.8 71.426 L 0.6 65.626 Q 0 55.226 0 47.526 A 84.108 84.108 0 0 1 0.018 45.736 Q 0.069 43.35 0.268 42.199 A 6.767 6.767 0 0 1 0.3 42.026 A 13.16 13.16 0 0 0 0.47 40.769 Q 0.774 37.622 0.798 29.38 A 498.497 498.497 0 0 0 0.8 27.926 Q 0.8 18.662 0.566 12.857 A 135.442 135.442 0 0 0 0.4 9.626 Q 0.31 8.904 0.301 7.691 A 36.807 36.807 0 0 1 0.3 7.426 Q 0.3 6.177 0.483 5.476 A 2.486 2.486 0 0 1 0.6 5.126 A 2.968 2.968 0 0 1 0.734 4.851 Q 0.884 4.581 1.047 4.463 A 0.456 0.456 0 0 1 1.25 4.376 A 3.284 3.284 0 0 1 1.458 4.355 Q 1.823 4.326 2.5 4.326 L 4.7 4.126 Q 11.6 3.326 15.7 3.326 A 34.725 34.725 0 0 1 22.121 3.881 Q 28.655 5.112 32.55 9.076 A 19.443 19.443 0 0 1 37.967 20.431 A 26.857 26.857 0 0 1 38.2 24.026 A 23.09 23.09 0 0 1 35.215 35.28 A 29.543 29.543 0 0 1 33.5 38.026 Q 31.5 40.926 28.9 43.226 L 35.9 55.926 Q 42.741 68.187 44.53 70.975 A 12.688 12.688 0 0 0 44.9 71.526 A 28.839 28.839 0 0 1 45.376 72.299 Q 46.087 73.498 46.251 74.111 A 1.251 1.251 0 0 1 46.3 74.426 A 0.468 0.468 0 0 1 46.239 74.67 Q 46.125 74.861 45.8 74.926 A 6.28 6.28 0 0 1 45.45 74.987 Q 45.284 75.01 45.139 75.02 A 2.879 2.879 0 0 1 44.95 75.026 L 44.4 75.026 L 33.1 75.326 A 1.45 1.45 0 0 1 32.437 75.178 Q 32.146 75.031 31.928 74.739 A 1.94 1.94 0 0 1 31.85 74.626 Q 31.404 73.932 30.613 72.156 A 61.957 61.957 0 0 1 30.6 72.126 Q 30.149 70.772 29.045 68.603 A 59.852 59.852 0 0 0 28.8 68.126 Q 27.159 65.172 23.565 57.977 A 1047.942 1047.942 0 0 1 21.9 54.626 L 16.8 44.726 L 17.1 50.026 L 17.6 57.626 Q 18.2 71.026 18.6 72.426 A 2.935 2.935 0 0 1 18.661 72.755 Q 18.684 72.931 18.694 73.135 A 6.327 6.327 0 0 1 18.7 73.426 A 2.45 2.45 0 0 1 18.603 74.15 Q 18.27 75.226 16.8 75.226 A 5.962 5.962 0 0 1 16.386 75.213 Q 16.053 75.19 15.8 75.126 A 5.489 5.489 0 0 0 15.46 75.096 Q 13.889 74.999 9.57 75.381 A 188.387 188.387 0 0 0 8 75.526 A 330.933 330.933 0 0 1 6.541 75.662 Q 3.631 75.926 2.9 75.926 Q 1.869 75.926 1.372 75.612 A 1.06 1.06 0 0 1 1.15 75.426 A 1.427 1.427 0 0 1 0.886 74.98 Q 0.725 74.563 0.704 73.932 A 5.922 5.922 0 0 1 0.7 73.726 Z M 137.4 59.726 L 138.9 60.926 A 13.169 13.169 0 0 1 139.656 61.659 Q 140.227 62.255 140.85 63.026 Q 141.9 64.326 141.9 64.926 Q 141.9 65.326 141.6 65.826 A 18.964 18.964 0 0 1 139.612 68.435 Q 138.538 69.63 137.161 70.832 A 38.574 38.574 0 0 1 135.4 72.276 A 14.294 14.294 0 0 1 130.67 74.636 Q 128.633 75.241 126.191 75.435 A 30.233 30.233 0 0 1 123.8 75.526 Q 112.7 75.526 106.8 66.976 Q 101.626 59.478 100.989 47.943 A 60.197 60.197 0 0 1 100.9 44.626 Q 100.9 35.926 103.7 29.226 A 27.557 27.557 0 0 1 106.819 23.604 A 21.718 21.718 0 0 1 111.55 18.826 A 19.153 19.153 0 0 1 122.994 15.127 A 23.42 23.42 0 0 1 123.2 15.126 Q 127.959 15.126 131.392 16.398 A 14.596 14.596 0 0 1 133.6 17.426 Q 137.6 19.726 139.1 21.826 A 1.446 1.446 0 0 1 139.15 21.88 Q 139.261 22.003 139.527 22.327 A 59.981 59.981 0 0 1 139.65 22.476 A 2.565 2.565 0 0 1 139.892 22.824 Q 140.1 23.187 140.1 23.526 Q 140.1 23.991 139.237 24.801 A 8.981 8.981 0 0 1 139.1 24.926 Q 138.2 25.826 136.7 27.726 Q 135.875 29.046 135.323 29.277 A 0.577 0.577 0 0 1 135.1 29.326 A 0.516 0.516 0 0 1 134.887 29.276 Q 134.717 29.198 134.52 29.004 A 2.765 2.765 0 0 1 134.4 28.876 Q 134.015 28.443 133.815 28.242 A 4.828 4.828 0 0 0 133.8 28.226 A 21.008 21.008 0 0 0 131.542 26.18 A 27.796 27.796 0 0 0 129.35 24.626 A 11.767 11.767 0 0 0 127.123 23.495 A 8.585 8.585 0 0 0 124.1 22.926 A 28.769 28.769 0 0 0 120.228 23.172 Q 117.213 23.583 114.9 24.676 A 10.046 10.046 0 0 0 111.495 27.371 Q 110.07 29.072 109 31.576 A 22.141 22.141 0 0 0 107.793 35.435 Q 106.8 39.876 106.8 46.326 A 70.68 70.68 0 0 0 107.037 52.345 Q 107.883 62.2 111.75 65.676 A 19.302 19.302 0 0 0 115.716 68.474 A 14.071 14.071 0 0 0 122.3 70.126 A 7.668 7.668 0 0 0 124.304 69.836 Q 126.092 69.35 128.257 68.054 A 26.17 26.17 0 0 0 128.55 67.876 Q 132.2 65.626 135 60.426 A 8.076 8.076 0 0 1 135.362 60.011 Q 136.005 59.326 136.4 59.326 A 1.364 1.364 0 0 1 136.97 59.457 Q 137.158 59.542 137.346 59.684 A 2.544 2.544 0 0 1 137.4 59.726 Z M 184.3 59.726 L 185.8 60.926 A 13.169 13.169 0 0 1 186.556 61.659 Q 187.127 62.255 187.75 63.026 Q 188.8 64.326 188.8 64.926 Q 188.8 65.326 188.5 65.826 A 18.964 18.964 0 0 1 186.512 68.435 Q 185.438 69.63 184.061 70.832 A 38.574 38.574 0 0 1 182.3 72.276 A 14.294 14.294 0 0 1 177.57 74.636 Q 175.533 75.241 173.091 75.435 A 30.233 30.233 0 0 1 170.7 75.526 Q 159.6 75.526 153.7 66.976 Q 148.526 59.478 147.889 47.943 A 60.197 60.197 0 0 1 147.8 44.626 Q 147.8 35.926 150.6 29.226 A 27.557 27.557 0 0 1 153.719 23.604 A 21.718 21.718 0 0 1 158.45 18.826 A 19.153 19.153 0 0 1 169.894 15.127 A 23.42 23.42 0 0 1 170.1 15.126 Q 174.859 15.126 178.292 16.398 A 14.596 14.596 0 0 1 180.5 17.426 Q 184.5 19.726 186 21.826 A 1.446 1.446 0 0 1 186.05 21.88 Q 186.161 22.003 186.427 22.327 A 59.981 59.981 0 0 1 186.55 22.476 A 2.565 2.565 0 0 1 186.792 22.824 Q 187 23.187 187 23.526 Q 187 23.991 186.137 24.801 A 8.981 8.981 0 0 1 186 24.926 Q 185.1 25.826 183.6 27.726 Q 182.775 29.046 182.223 29.277 A 0.577 0.577 0 0 1 182 29.326 A 0.516 0.516 0 0 1 181.787 29.276 Q 181.617 29.198 181.42 29.004 A 2.765 2.765 0 0 1 181.3 28.876 Q 180.915 28.443 180.715 28.242 A 4.828 4.828 0 0 0 180.7 28.226 A 21.008 21.008 0 0 0 178.442 26.18 A 27.796 27.796 0 0 0 176.25 24.626 A 11.767 11.767 0 0 0 174.023 23.495 A 8.585 8.585 0 0 0 171 22.926 A 28.769 28.769 0 0 0 167.128 23.172 Q 164.113 23.583 161.8 24.676 A 10.046 10.046 0 0 0 158.395 27.371 Q 156.97 29.072 155.9 31.576 A 22.141 22.141 0 0 0 154.693 35.435 Q 153.7 39.876 153.7 46.326 A 70.68 70.68 0 0 0 153.937 52.345 Q 154.783 62.2 158.65 65.676 A 19.302 19.302 0 0 0 162.616 68.474 A 14.071 14.071 0 0 0 169.2 70.126 A 7.668 7.668 0 0 0 171.204 69.836 Q 172.992 69.35 175.157 68.054 A 26.17 26.17 0 0 0 175.45 67.876 Q 179.1 65.626 181.9 60.426 A 8.076 8.076 0 0 1 182.262 60.011 Q 182.905 59.326 183.3 59.326 A 1.364 1.364 0 0 1 183.87 59.457 Q 184.058 59.542 184.246 59.684 A 2.544 2.544 0 0 1 184.3 59.726 Z M 472.8 21.526 L 473 5.026 A 21.766 21.766 0 0 1 473.031 3.817 Q 473.099 2.609 473.312 1.824 A 4.015 4.015 0 0 1 473.5 1.276 A 2.194 2.194 0 0 1 473.878 0.673 Q 474.324 0.18 475.042 0.132 A 2.364 2.364 0 0 1 475.2 0.126 L 479.6 0.226 A 23.518 23.518 0 0 0 480.493 0.211 Q 481.356 0.178 481.946 0.076 A 5.39 5.39 0 0 0 482.2 0.026 A 2.216 2.216 0 0 1 482.424 0.003 Q 483.544 -0.054 484 1.176 Q 484.5 2.526 484.5 4.126 L 484.3 72.526 Q 484.3 73.826 483.75 74.326 A 1.726 1.726 0 0 1 483.139 74.677 Q 482.879 74.766 482.562 74.802 A 4.095 4.095 0 0 1 482.1 74.826 A 126.166 126.166 0 0 0 474.958 74.626 A 134.684 134.684 0 0 0 474.9 74.626 Q 473.651 74.626 472.981 74.383 A 1.814 1.814 0 0 1 472.65 74.226 A 1.082 1.082 0 0 1 472.257 73.778 Q 472 73.27 472 72.326 L 472 70.326 A 35.156 35.156 0 0 1 468.344 72.795 A 28.835 28.835 0 0 1 466 74.026 Q 463 75.426 459.8 75.426 Q 454.7 75.426 450.65 73.126 A 18.288 18.288 0 0 1 445.474 68.684 A 23.059 23.059 0 0 1 443.8 66.326 Q 439.511 59.398 438.76 48.863 A 65.214 65.214 0 0 1 438.6 44.226 Q 438.6 37.926 440.1 33.376 A 27.979 27.979 0 0 1 443.842 26.019 A 32.459 32.459 0 0 1 444.8 24.726 A 25.299 25.299 0 0 1 447.722 21.581 A 18.697 18.697 0 0 1 451.3 19.026 A 17.85 17.85 0 0 1 455.338 17.466 A 14.825 14.825 0 0 1 458.9 17.026 Q 463.674 17.026 466.55 17.786 A 14.199 14.199 0 0 1 466.7 17.826 A 32.118 32.118 0 0 1 467.871 18.172 Q 469.594 18.719 470.304 19.216 A 2.351 2.351 0 0 1 470.45 19.326 Q 471.3 20.026 472.8 21.526 Z M 621 74.226 L 613.3 74.326 A 2.752 2.752 0 0 1 612.753 74.277 Q 611.908 74.105 611.812 73.334 A 1.681 1.681 0 0 1 611.8 73.126 Q 611.8 72.726 611.85 70.426 Q 611.9 68.126 611.9 62.526 Q 611.9 56.826 612.25 51.526 Q 612.58 46.524 612.599 45.709 A 3.709 3.709 0 0 0 612.6 45.626 L 613.2 27.526 L 613.3 17.226 A 3.669 3.669 0 0 1 613.319 16.835 Q 613.398 16.107 613.8 16.026 A 9.957 9.957 0 0 1 614.076 16.031 Q 614.532 16.044 615.418 16.093 A 161.419 161.419 0 0 1 616 16.126 Q 617.615 16.221 620.043 16.226 A 131.758 131.758 0 0 0 620.3 16.226 Q 622.3 16.226 624.25 16.126 A 294.526 294.526 0 0 1 624.927 16.092 Q 626.275 16.026 626.6 16.026 A 0.535 0.535 0 0 1 626.909 16.128 Q 626.991 16.185 627.069 16.274 A 1.315 1.315 0 0 1 627.15 16.376 A 2.501 2.501 0 0 1 627.259 16.541 Q 627.356 16.704 627.387 16.825 A 0.423 0.423 0 0 1 627.4 16.926 L 627.6 19.726 A 32.07 32.07 0 0 1 631.789 17.457 A 41.604 41.604 0 0 1 635.55 15.976 Q 639.223 14.725 641.495 14.484 A 9.566 9.566 0 0 1 642.5 14.426 A 5.732 5.732 0 0 1 642.743 14.431 Q 643.109 14.447 643.271 14.513 A 0.429 0.429 0 0 1 643.3 14.526 A 0.318 0.318 0 0 1 643.397 14.609 Q 643.559 14.802 643.75 15.376 Q 643.906 15.845 644.043 16.216 A 16.043 16.043 0 0 0 644.2 16.626 Q 645.1 18.876 645.433 21.937 A 30.287 30.287 0 0 1 645.5 22.626 A 22.874 22.874 0 0 0 645.617 23.897 Q 645.709 24.665 645.855 25.525 A 42.116 42.116 0 0 0 646 26.326 Q 646.153 27.015 646.189 27.939 A 15.141 15.141 0 0 1 646.2 28.526 A 9.898 9.898 0 0 1 646.197 28.8 Q 646.183 29.296 646.114 29.408 A 0.099 0.099 0 0 1 646.1 29.426 A 3.855 3.855 0 0 1 644.428 30.814 A 5.232 5.232 0 0 1 643.7 31.076 A 17.426 17.426 0 0 1 642.618 31.339 Q 641.18 31.645 639 31.926 A 50.949 50.949 0 0 0 636.013 32.317 Q 634.603 32.547 633.377 32.843 A 27.014 27.014 0 0 0 632.3 33.126 L 627.9 34.126 L 628 38.126 A 180.377 180.377 0 0 0 628.002 38.901 Q 628.013 41.439 628.1 41.526 L 628.2 50.026 Q 628.353 55.08 628.389 62.946 A 1115.811 1115.811 0 0 1 628.4 68.026 Q 628.4 71.822 628.102 73.46 A 5.966 5.966 0 0 1 628 73.926 A 0.528 0.528 0 0 1 627.697 74.403 Q 627.307 74.624 626.418 74.626 A 7.205 7.205 0 0 1 626.4 74.626 Q 626.3 74.626 624.85 74.426 Q 623.4 74.226 621 74.226 Z M 66.039 75.768 A 26.349 26.349 0 0 0 72.6 76.526 A 18.791 18.791 0 0 0 73.023 76.522 A 15.192 15.192 0 0 0 84.05 71.676 Q 88.7 66.826 90.95 59.676 A 52.603 52.603 0 0 0 92.038 55.69 A 43.884 43.884 0 0 0 93.2 45.826 Q 93.2 37.526 91.9 30.876 Q 90.6 24.226 85.9 19.376 A 13.995 13.995 0 0 0 82.73 16.934 Q 78.482 14.526 72 14.526 Q 67.1 14.526 62.25 17.226 A 15.436 15.436 0 0 0 59.951 18.801 Q 58.108 20.317 56.509 22.514 A 30.003 30.003 0 0 0 54 26.676 A 26.517 26.517 0 0 0 52.27 31.113 Q 51.41 34.03 50.993 37.528 A 60.085 60.085 0 0 0 50.6 44.626 Q 50.6 56.226 55 66.376 A 15.697 15.697 0 0 0 66.039 75.768 Z M 210.439 75.768 A 26.349 26.349 0 0 0 217 76.526 A 18.791 18.791 0 0 0 217.423 76.522 A 15.192 15.192 0 0 0 228.45 71.676 Q 233.1 66.826 235.35 59.676 A 52.603 52.603 0 0 0 236.438 55.69 A 43.884 43.884 0 0 0 237.6 45.826 Q 237.6 37.526 236.3 30.876 Q 235 24.226 230.3 19.376 A 13.995 13.995 0 0 0 227.13 16.934 Q 222.882 14.526 216.4 14.526 Q 211.5 14.526 206.65 17.226 A 15.436 15.436 0 0 0 204.351 18.801 Q 202.508 20.317 200.909 22.514 A 30.003 30.003 0 0 0 198.4 26.676 A 26.517 26.517 0 0 0 196.67 31.113 Q 195.81 34.03 195.393 37.528 A 60.085 60.085 0 0 0 195 44.626 Q 195 56.226 199.4 66.376 A 15.697 15.697 0 0 0 210.439 75.768 Z M 352.839 75.768 A 26.349 26.349 0 0 0 359.4 76.526 A 18.791 18.791 0 0 0 359.823 76.522 A 15.192 15.192 0 0 0 370.85 71.676 Q 375.5 66.826 377.75 59.676 A 52.603 52.603 0 0 0 378.838 55.69 A 43.884 43.884 0 0 0 380 45.826 Q 380 37.526 378.7 30.876 Q 377.4 24.226 372.7 19.376 A 13.995 13.995 0 0 0 369.53 16.934 Q 365.282 14.526 358.8 14.526 Q 353.9 14.526 349.05 17.226 A 15.436 15.436 0 0 0 346.751 18.801 Q 344.908 20.317 343.309 22.514 A 30.003 30.003 0 0 0 340.8 26.676 A 26.517 26.517 0 0 0 339.07 31.113 Q 338.21 34.03 337.793 37.528 A 60.085 60.085 0 0 0 337.4 44.626 Q 337.4 56.226 341.8 66.376 A 15.697 15.697 0 0 0 352.839 75.768 Z M 403.439 75.768 A 26.349 26.349 0 0 0 410 76.526 A 18.791 18.791 0 0 0 410.423 76.522 A 15.192 15.192 0 0 0 421.45 71.676 Q 426.1 66.826 428.35 59.676 A 52.603 52.603 0 0 0 429.438 55.69 A 43.884 43.884 0 0 0 430.6 45.826 Q 430.6 37.526 429.3 30.876 Q 428 24.226 423.3 19.376 A 13.995 13.995 0 0 0 420.13 16.934 Q 415.882 14.526 409.4 14.526 Q 404.5 14.526 399.65 17.226 A 15.436 15.436 0 0 0 397.351 18.801 Q 395.508 20.317 393.909 22.514 A 30.003 30.003 0 0 0 391.4 26.676 A 26.517 26.517 0 0 0 389.67 31.113 Q 388.81 34.03 388.393 37.528 A 60.085 60.085 0 0 0 388 44.626 Q 388 56.226 392.4 66.376 A 15.697 15.697 0 0 0 403.439 75.768 Z M 574.739 75.768 A 26.349 26.349 0 0 0 581.3 76.526 A 18.791 18.791 0 0 0 581.723 76.522 A 15.192 15.192 0 0 0 592.75 71.676 Q 597.4 66.826 599.65 59.676 A 52.603 52.603 0 0 0 600.738 55.69 A 43.884 43.884 0 0 0 601.9 45.826 Q 601.9 37.526 600.6 30.876 Q 599.3 24.226 594.6 19.376 A 13.995 13.995 0 0 0 591.43 16.934 Q 587.182 14.526 580.7 14.526 Q 575.8 14.526 570.95 17.226 A 15.436 15.436 0 0 0 568.651 18.801 Q 566.808 20.317 565.209 22.514 A 30.003 30.003 0 0 0 562.7 26.676 A 26.517 26.517 0 0 0 560.97 31.113 Q 560.11 34.03 559.693 37.528 A 60.085 60.085 0 0 0 559.3 44.626 Q 559.3 56.226 563.7 66.376 A 15.697 15.697 0 0 0 574.739 75.768 Z M 472.5 51.726 L 472.7 47.326 Q 472.7 45.226 472.5 41.826 Q 472.3 37.826 472.3 33.926 A 6.45 6.45 0 0 0 470.524 29.46 A 8.368 8.368 0 0 0 470.4 29.326 A 12.575 12.575 0 0 0 466.553 26.592 A 14.931 14.931 0 0 0 465.7 26.226 A 17.461 17.461 0 0 0 463.327 25.474 Q 461.85 25.126 460.5 25.126 A 11.151 11.151 0 0 0 454.775 26.722 A 13.218 13.218 0 0 0 454.6 26.826 Q 451.8 28.626 450 31.426 Q 447.9 34.726 446.9 37.826 Q 445.9 40.926 445.9 45.026 Q 445.9 52.297 447.526 57.535 A 23.944 23.944 0 0 0 449.1 61.426 A 15.619 15.619 0 0 0 451.478 65.016 A 10.342 10.342 0 0 0 459.5 68.526 A 16.708 16.708 0 0 0 463.193 68.134 A 13.525 13.525 0 0 0 466.1 67.126 A 12.515 12.515 0 0 0 468.593 65.559 A 9.881 9.881 0 0 0 470.55 63.426 A 9.592 9.592 0 0 0 471.656 61.267 A 7.573 7.573 0 0 0 472.1 58.726 Q 472.1 56.326 472.5 51.726 Z M 71.9 57.126 A 5.461 5.461 0 0 0 74.17 56.672 Q 75.413 56.111 76.265 54.858 A 7.217 7.217 0 0 0 76.75 54.026 Q 78.208 51.111 78.295 47.046 A 24.331 24.331 0 0 0 78.3 46.526 Q 78.3 42.054 77.407 39.644 A 6.561 6.561 0 0 0 76.85 38.476 A 4.885 4.885 0 0 0 75.222 36.819 Q 74.075 36.126 72.5 36.126 A 5.102 5.102 0 0 0 67.623 39.369 Q 66.498 41.737 66.33 45.834 A 36.432 36.432 0 0 0 66.3 47.326 A 26.53 26.53 0 0 0 66.455 50.28 Q 66.616 51.715 66.945 52.937 A 13.142 13.142 0 0 0 67.4 54.326 Q 68.273 56.55 70.597 57.008 A 6.74 6.74 0 0 0 71.9 57.126 Z M 216.3 57.126 A 5.461 5.461 0 0 0 218.57 56.672 Q 219.813 56.111 220.665 54.858 A 7.217 7.217 0 0 0 221.15 54.026 Q 222.608 51.111 222.695 47.046 A 24.331 24.331 0 0 0 222.7 46.526 Q 222.7 42.054 221.807 39.644 A 6.561 6.561 0 0 0 221.25 38.476 A 4.885 4.885 0 0 0 219.622 36.819 Q 218.475 36.126 216.9 36.126 A 5.102 5.102 0 0 0 212.023 39.369 Q 210.898 41.737 210.73 45.834 A 36.432 36.432 0 0 0 210.7 47.326 A 26.53 26.53 0 0 0 210.855 50.28 Q 211.016 51.715 211.345 52.937 A 13.142 13.142 0 0 0 211.8 54.326 Q 212.673 56.55 214.997 57.008 A 6.74 6.74 0 0 0 216.3 57.126 Z M 358.7 57.126 A 5.461 5.461 0 0 0 360.97 56.672 Q 362.213 56.111 363.065 54.858 A 7.217 7.217 0 0 0 363.55 54.026 Q 365.008 51.111 365.095 47.046 A 24.331 24.331 0 0 0 365.1 46.526 Q 365.1 42.054 364.207 39.644 A 6.561 6.561 0 0 0 363.65 38.476 A 4.885 4.885 0 0 0 362.022 36.819 Q 360.875 36.126 359.3 36.126 A 5.102 5.102 0 0 0 354.423 39.369 Q 353.298 41.737 353.13 45.834 A 36.432 36.432 0 0 0 353.1 47.326 A 26.53 26.53 0 0 0 353.255 50.28 Q 353.416 51.715 353.745 52.937 A 13.142 13.142 0 0 0 354.2 54.326 Q 355.073 56.55 357.397 57.008 A 6.74 6.74 0 0 0 358.7 57.126 Z M 409.3 57.126 A 5.461 5.461 0 0 0 411.57 56.672 Q 412.813 56.111 413.665 54.858 A 7.217 7.217 0 0 0 414.15 54.026 Q 415.608 51.111 415.695 47.046 A 24.331 24.331 0 0 0 415.7 46.526 Q 415.7 42.054 414.807 39.644 A 6.561 6.561 0 0 0 414.25 38.476 A 4.885 4.885 0 0 0 412.622 36.819 Q 411.475 36.126 409.9 36.126 A 5.102 5.102 0 0 0 405.023 39.369 Q 403.898 41.737 403.73 45.834 A 36.432 36.432 0 0 0 403.7 47.326 A 26.53 26.53 0 0 0 403.855 50.28 Q 404.016 51.715 404.345 52.937 A 13.142 13.142 0 0 0 404.8 54.326 Q 405.673 56.55 407.997 57.008 A 6.74 6.74 0 0 0 409.3 57.126 Z M 580.6 57.126 A 5.461 5.461 0 0 0 582.87 56.672 Q 584.113 56.111 584.965 54.858 A 7.217 7.217 0 0 0 585.45 54.026 Q 586.908 51.111 586.995 47.046 A 24.331 24.331 0 0 0 587 46.526 Q 587 42.054 586.107 39.644 A 6.561 6.561 0 0 0 585.55 38.476 A 4.885 4.885 0 0 0 583.922 36.819 Q 582.775 36.126 581.2 36.126 A 5.102 5.102 0 0 0 576.323 39.369 Q 575.198 41.737 575.03 45.834 A 36.432 36.432 0 0 0 575 47.326 A 26.53 26.53 0 0 0 575.155 50.28 Q 575.316 51.715 575.645 52.937 A 13.142 13.142 0 0 0 576.1 54.326 Q 576.973 56.55 579.297 57.008 A 6.74 6.74 0 0 0 580.6 57.126 Z M 16.2 29.726 L 16.1 30.626 L 16.2 31.426 Q 17.7 31.426 18.9 30.826 Q 21.622 29.563 21.698 25.747 A 11.111 11.111 0 0 0 21.7 25.526 Q 21.7 22.916 20.971 21.521 A 3.799 3.799 0 0 0 20.8 21.226 A 3.691 3.691 0 0 0 20.189 20.488 A 2.43 2.43 0 0 0 18.5 19.826 A 2.591 2.591 0 0 0 16.625 20.602 A 3.269 3.269 0 0 0 16.6 20.626 A 0.115 0.115 0 0 0 16.576 20.676 Q 16.517 20.894 16.592 21.925 A 29.978 29.978 0 0 0 16.6 22.026 Q 16.7 23.326 16.7 24.626 Q 16.7 25.456 16.643 25.944 A 3.545 3.545 0 0 1 16.6 26.226 Q 16.2 27.926 16.2 29.726 Z" vector-effect="non-scaling-stroke"/></g></svg>