<svg width="635.3" height="73.902" viewBox="0 0 635.3 73.902" xmlns="http://www.w3.org/2000/svg"><g id="svgGroup" stroke-linecap="round" fill-rule="evenodd" font-size="9pt" stroke="#000" stroke-width="0.25mm" fill="#ffffff" style="stroke:#000;stroke-width:0.25mm;fill:#ffffff"><path d="M 188.1 20.301 L 186.2 13.201 L 184 5.101 A 14.382 14.382 0 0 1 183.807 4.417 Q 183.648 3.794 183.611 3.353 A 3.027 3.027 0 0 1 183.6 3.101 Q 183.6 2.919 183.673 2.811 A 0.326 0.326 0 0 1 183.8 2.701 A 0.881 0.881 0 0 1 184.01 2.629 Q 184.108 2.608 184.222 2.602 A 1.684 1.684 0 0 1 184.3 2.601 L 187.4 2.601 Q 189.1 2.601 189.8 2.501 L 190.9 2.301 Q 191.9 2.001 192.25 2.601 A 2.697 2.697 0 0 1 192.417 2.953 Q 192.667 3.579 192.941 4.825 A 31.967 31.967 0 0 1 193 5.101 A 16.879 16.879 0 0 0 193.075 5.386 Q 193.403 6.599 194.803 11.465 A 2690.473 2690.473 0 0 0 195 12.151 Q 196.8 18.401 199.2 24.401 Q 201.1 30.301 202.7 34.201 L 204.4 38.601 L 204.8 37.301 L 205.8 34.501 A 14.364 14.364 0 0 0 206.098 33.694 Q 206.819 31.582 208.2 26.301 L 208.9 23.701 A 31.825 31.825 0 0 1 209.142 22.849 Q 209.514 21.599 210.23 19.421 A 344.717 344.717 0 0 1 210.7 18.001 Q 211.772 14.785 212.492 12.683 A 270.946 270.946 0 0 1 212.9 11.501 Q 213.283 10.658 213.783 9.171 A 62.631 62.631 0 0 0 214.1 8.201 Q 216.358 2.468 217.56 1.715 A 0.648 0.648 0 0 1 217.9 1.601 A 3.84 3.84 0 0 1 218.182 1.61 Q 218.611 1.642 218.776 1.779 A 0.345 0.345 0 0 1 218.8 1.801 Q 219 2.001 219.1 2.501 A 11 11 0 0 0 219.163 2.794 Q 219.229 3.085 219.296 3.287 A 3.218 3.218 0 0 0 219.3 3.301 A 44.576 44.576 0 0 0 219.464 3.936 Q 219.538 4.215 219.622 4.519 A 77.183 77.183 0 0 0 219.8 5.151 Q 220.1 6.201 220.3 7.501 A 6818.336 6818.336 0 0 0 221.688 11.105 Q 223.959 17.002 224.802 19.148 A 135.74 135.74 0 0 0 225.1 19.901 L 228.2 26.601 L 230 30.601 Q 230.185 30.046 230.369 29.748 A 1.69 1.69 0 0 1 230.4 29.701 L 231.4 27.201 A 4.244 4.244 0 0 0 231.489 26.874 Q 231.672 26.111 232.034 24.059 A 218.514 218.514 0 0 0 232.2 23.101 Q 232.9 18.701 233.4 16.801 Q 233.783 15.346 234.635 12.895 A 140.118 140.118 0 0 1 235.2 11.301 A 116.101 116.101 0 0 0 235.794 9.514 Q 236.577 7.09 236.821 5.867 A 7.449 7.449 0 0 0 236.9 5.401 Q 237.17 3.041 238.166 2.272 A 1.802 1.802 0 0 1 239.3 1.901 Q 240.9 1.501 242.9 1.501 A 15.726 15.726 0 0 1 243.304 1.505 Q 243.854 1.52 244.109 1.576 A 0.918 0.918 0 0 1 244.2 1.601 A 2.352 2.352 0 0 1 244.634 1.637 Q 245.356 1.773 245.398 2.421 A 1.262 1.262 0 0 1 245.4 2.501 L 245.2 3.701 L 244.3 6.501 Q 243.723 8.726 243.282 10.068 A 22.124 22.124 0 0 1 243.1 10.601 A 1608.941 1608.941 0 0 1 242.697 12.049 Q 242.338 13.338 241.9 14.901 Q 241.2 17.401 240.5 20.001 Q 239.158 25.278 238.137 28.796 A 133.842 133.842 0 0 1 237.9 29.601 A 37.393 37.393 0 0 0 237.594 30.941 Q 237.272 32.469 236.923 34.594 A 157.573 157.573 0 0 0 236.6 36.651 A 290.581 290.581 0 0 0 236.362 38.259 Q 235.962 41.021 235.908 41.88 A 3.653 3.653 0 0 0 235.9 42.101 Q 235.9 43.833 235.171 46.085 A 24.998 24.998 0 0 1 234.5 47.901 Q 234.092 49.126 233.349 52.754 A 219.066 219.066 0 0 0 233 54.501 Q 232 59.601 231.7 61.401 Q 230.875 66.846 230.458 68.275 A 2.174 2.174 0 0 1 230.3 68.701 Q 230.231 69.113 230.139 69.644 A 223.095 223.095 0 0 1 230.05 70.151 Q 229.9 71.001 229.75 71.401 Q 229.6 71.801 229.3 71.801 A 2.521 2.521 0 0 1 228.886 71.769 Q 228.667 71.732 228.496 71.654 A 1.015 1.015 0 0 1 228.15 71.401 Q 227.8 71.001 227.2 69.701 A 4.287 4.287 0 0 1 226.812 69.055 Q 225.781 67.069 223.1 60.001 A 63.505 63.505 0 0 1 222.739 59.041 Q 221.744 56.344 218.9 48.301 A 35.038 35.038 0 0 0 218.55 47.157 Q 218.138 45.881 217.512 44.206 A 126.129 126.129 0 0 0 216.9 42.601 L 215.5 38.901 L 214.1 41.701 Q 213.179 43.727 211.41 48.297 A 403.736 403.736 0 0 0 211.1 49.101 L 210.3 51.101 Q 209.1 54.601 206.5 65.401 L 205.8 68.301 A 9.308 9.308 0 0 1 204.969 70.434 A 10.457 10.457 0 0 1 204.85 70.651 A 6.192 6.192 0 0 1 204.592 71.07 Q 204.098 71.801 203.7 71.801 Q 203 71.801 202.65 71.301 A 2.712 2.712 0 0 1 202.441 70.94 Q 202.209 70.465 202 69.701 A 3.451 3.451 0 0 1 201.829 69.256 Q 201.413 67.982 200.6 64.001 Q 200.2 62.401 199.4 59.151 Q 198.711 56.352 198.319 55.221 A 7.464 7.464 0 0 0 198.2 54.901 Q 197.511 53.216 196.646 50.33 A 122.772 122.772 0 0 1 196.1 48.451 Q 195.073 44.814 194.779 43.703 A 22.81 22.81 0 0 1 194.7 43.401 Q 194.019 41.783 191.164 31.253 A 1256.611 1256.611 0 0 1 190.1 27.301 Q 189.5 25.401 189 23.551 Q 188.57 21.961 188.215 20.703 A 164.867 164.867 0 0 0 188.1 20.301 Z M 414.4 20.301 L 412.5 13.201 L 410.3 5.101 A 14.382 14.382 0 0 1 410.107 4.417 Q 409.948 3.794 409.911 3.353 A 3.027 3.027 0 0 1 409.9 3.101 Q 409.9 2.919 409.973 2.811 A 0.326 0.326 0 0 1 410.1 2.701 A 0.881 0.881 0 0 1 410.31 2.629 Q 410.408 2.608 410.522 2.602 A 1.684 1.684 0 0 1 410.6 2.601 L 413.7 2.601 Q 415.4 2.601 416.1 2.501 L 417.2 2.301 Q 418.2 2.001 418.55 2.601 A 2.697 2.697 0 0 1 418.717 2.953 Q 418.967 3.579 419.241 4.825 A 31.967 31.967 0 0 1 419.3 5.101 A 16.879 16.879 0 0 0 419.375 5.386 Q 419.703 6.599 421.103 11.465 A 2690.473 2690.473 0 0 0 421.3 12.151 Q 423.1 18.401 425.5 24.401 Q 427.4 30.301 429 34.201 L 430.7 38.601 L 431.1 37.301 L 432.1 34.501 A 14.364 14.364 0 0 0 432.398 33.694 Q 433.119 31.582 434.5 26.301 L 435.2 23.701 A 31.825 31.825 0 0 1 435.442 22.849 Q 435.814 21.599 436.53 19.421 A 344.717 344.717 0 0 1 437 18.001 Q 438.072 14.785 438.792 12.683 A 270.946 270.946 0 0 1 439.2 11.501 Q 439.583 10.658 440.083 9.171 A 62.631 62.631 0 0 0 440.4 8.201 Q 442.658 2.468 443.86 1.715 A 0.648 0.648 0 0 1 444.2 1.601 A 3.84 3.84 0 0 1 444.482 1.61 Q 444.911 1.642 445.076 1.779 A 0.345 0.345 0 0 1 445.1 1.801 Q 445.3 2.001 445.4 2.501 A 11 11 0 0 0 445.463 2.794 Q 445.529 3.085 445.596 3.287 A 3.218 3.218 0 0 0 445.6 3.301 A 44.576 44.576 0 0 0 445.764 3.936 Q 445.838 4.215 445.922 4.519 A 77.183 77.183 0 0 0 446.1 5.151 Q 446.4 6.201 446.6 7.501 A 6818.336 6818.336 0 0 0 447.988 11.105 Q 450.259 17.002 451.102 19.148 A 135.74 135.74 0 0 0 451.4 19.901 L 454.5 26.601 L 456.3 30.601 Q 456.485 30.046 456.669 29.748 A 1.69 1.69 0 0 1 456.7 29.701 L 457.7 27.201 A 4.244 4.244 0 0 0 457.789 26.874 Q 457.972 26.111 458.334 24.059 A 218.514 218.514 0 0 0 458.5 23.101 Q 459.2 18.701 459.7 16.801 Q 460.083 15.346 460.935 12.895 A 140.118 140.118 0 0 1 461.5 11.301 A 116.101 116.101 0 0 0 462.094 9.514 Q 462.877 7.09 463.121 5.867 A 7.449 7.449 0 0 0 463.2 5.401 Q 463.47 3.041 464.466 2.272 A 1.802 1.802 0 0 1 465.6 1.901 Q 467.2 1.501 469.2 1.501 A 15.726 15.726 0 0 1 469.604 1.505 Q 470.154 1.52 470.409 1.576 A 0.918 0.918 0 0 1 470.5 1.601 A 2.352 2.352 0 0 1 470.934 1.637 Q 471.656 1.773 471.698 2.421 A 1.262 1.262 0 0 1 471.7 2.501 L 471.5 3.701 L 470.6 6.501 Q 470.023 8.726 469.582 10.068 A 22.124 22.124 0 0 1 469.4 10.601 A 1608.941 1608.941 0 0 1 468.997 12.049 Q 468.638 13.338 468.2 14.901 Q 467.5 17.401 466.8 20.001 Q 465.458 25.278 464.437 28.796 A 133.842 133.842 0 0 1 464.2 29.601 A 37.393 37.393 0 0 0 463.894 30.941 Q 463.572 32.469 463.223 34.594 A 157.573 157.573 0 0 0 462.9 36.651 A 290.581 290.581 0 0 0 462.662 38.259 Q 462.262 41.021 462.208 41.88 A 3.653 3.653 0 0 0 462.2 42.101 Q 462.2 43.833 461.471 46.085 A 24.998 24.998 0 0 1 460.8 47.901 Q 460.392 49.126 459.649 52.754 A 219.066 219.066 0 0 0 459.3 54.501 Q 458.3 59.601 458 61.401 Q 457.175 66.846 456.758 68.275 A 2.174 2.174 0 0 1 456.6 68.701 Q 456.531 69.113 456.439 69.644 A 223.095 223.095 0 0 1 456.35 70.151 Q 456.2 71.001 456.05 71.401 Q 455.9 71.801 455.6 71.801 A 2.521 2.521 0 0 1 455.186 71.769 Q 454.967 71.732 454.796 71.654 A 1.015 1.015 0 0 1 454.45 71.401 Q 454.1 71.001 453.5 69.701 A 4.287 4.287 0 0 1 453.112 69.055 Q 452.081 67.069 449.4 60.001 A 63.505 63.505 0 0 1 449.039 59.041 Q 448.044 56.344 445.2 48.301 A 35.038 35.038 0 0 0 444.85 47.157 Q 444.438 45.881 443.812 44.206 A 126.129 126.129 0 0 0 443.2 42.601 L 441.8 38.901 L 440.4 41.701 Q 439.479 43.727 437.71 48.297 A 403.736 403.736 0 0 0 437.4 49.101 L 436.6 51.101 Q 435.4 54.601 432.8 65.401 L 432.1 68.301 A 9.308 9.308 0 0 1 431.269 70.434 A 10.457 10.457 0 0 1 431.15 70.651 A 6.192 6.192 0 0 1 430.892 71.07 Q 430.398 71.801 430 71.801 Q 429.3 71.801 428.95 71.301 A 2.712 2.712 0 0 1 428.741 70.94 Q 428.509 70.465 428.3 69.701 A 3.451 3.451 0 0 1 428.129 69.256 Q 427.713 67.982 426.9 64.001 Q 426.5 62.401 425.7 59.151 Q 425.011 56.352 424.619 55.221 A 7.464 7.464 0 0 0 424.5 54.901 Q 423.811 53.216 422.946 50.33 A 122.772 122.772 0 0 1 422.4 48.451 Q 421.373 44.814 421.079 43.703 A 22.81 22.81 0 0 1 421 43.401 Q 420.319 41.783 417.464 31.253 A 1256.611 1256.611 0 0 1 416.4 27.301 Q 415.8 25.401 415.3 23.551 Q 414.87 21.961 414.515 20.703 A 164.867 164.867 0 0 0 414.4 20.301 Z M 600.7 51.401 L 597.1 47.301 Q 597.1 50.301 597 51.601 L 596.8 58.001 L 596.7 64.901 Q 596.7 68.601 597 69.701 Q 597.1 70.001 597.1 70.401 A 2.148 2.148 0 0 1 597.083 70.68 Q 597.043 70.986 596.906 71.139 A 0.441 0.441 0 0 1 596.75 71.251 A 1.451 1.451 0 0 1 596.497 71.33 Q 596.229 71.39 595.842 71.399 A 6.037 6.037 0 0 1 595.7 71.401 L 591.7 71.401 L 589.3 71.501 Q 586.7 71.701 585.5 71.701 A 15.806 15.806 0 0 1 585.153 71.697 Q 584.475 71.682 584.306 71.604 A 0.239 0.239 0 0 1 584.3 71.601 Q 583.6 71.601 583.6 71.001 A 1.002 1.002 0 0 1 583.617 70.842 Q 583.681 70.457 584 69.501 Q 584.167 68.915 583.915 67.072 A 34.461 34.461 0 0 0 583.8 66.301 Q 583.7 65.701 583.6 64.801 A 16.553 16.553 0 0 1 583.507 63.425 A 19.219 19.219 0 0 1 583.5 62.901 Q 583.596 57.606 583.832 46.242 A 20062.621 20062.621 0 0 1 583.85 45.351 Q 584.072 34.645 584.334 32.109 A 7.48 7.48 0 0 1 584.4 31.601 A 31.139 31.139 0 0 0 584.524 30.082 Q 584.659 27.868 584.69 24.072 A 298.092 298.092 0 0 0 584.7 21.601 A 230.802 230.802 0 0 0 584.697 20.278 Q 584.681 17.632 584.6 16.901 A 6.676 6.676 0 0 1 584.566 16.509 Q 584.5 15.463 584.5 12.701 Q 584.5 9.701 584.65 6.751 Q 584.779 4.223 584.944 3.2 A 5.285 5.285 0 0 1 585 2.901 A 1.481 1.481 0 0 1 585.101 2.476 Q 585.292 2.018 585.813 1.924 A 1.63 1.63 0 0 1 586.1 1.901 Q 586.6 1.901 587.1 2.051 Q 587.6 2.201 588.1 2.201 Q 589.666 2.201 590.621 2.268 A 13.352 13.352 0 0 1 591 2.301 A 31.361 31.361 0 0 1 591.642 2.308 Q 591.927 2.313 592.242 2.324 A 58.511 58.511 0 0 1 592.9 2.351 A 16.366 16.366 0 0 0 593.45 2.366 Q 594.359 2.377 595.5 2.301 L 596.1 2.301 A 3.324 3.324 0 0 1 596.445 2.317 Q 596.792 2.353 596.992 2.47 A 0.589 0.589 0 0 1 597.15 2.601 Q 597.4 2.901 597.4 3.501 L 597.4 7.201 L 597.4 10.201 L 597.4 14.301 A 553.184 553.184 0 0 1 597.386 18.389 Q 597.327 26.294 597.024 28.998 A 16.093 16.093 0 0 1 597 29.201 Q 596.8 31.401 596.8 32.701 L 596.9 36.001 L 597.1 39.401 L 598.7 37.701 A 8.85 8.85 0 0 1 598.954 37.412 Q 599.595 36.711 601.299 35.002 A 302.071 302.071 0 0 1 601.6 34.701 Q 602.8 33.601 606 30.151 Q 608.45 27.509 610.079 25.718 A 263.468 263.468 0 0 0 611 24.701 Q 611.654 23.802 613.775 21.435 A 220.319 220.319 0 0 1 614.8 20.301 A 203.489 203.489 0 0 1 617.503 17.383 Q 618.972 15.829 620.3 14.501 Q 621.9 12.701 623.4 11.201 A 741.098 741.098 0 0 0 624.789 9.666 Q 629.35 4.613 629.7 4.001 A 6.377 6.377 0 0 1 630.254 3.277 Q 630.987 2.461 631.771 2.306 A 1.934 1.934 0 0 1 631.8 2.301 Q 632.1 2.301 633.05 2.251 Q 633.906 2.206 634.477 2.282 A 3.893 3.893 0 0 1 634.6 2.301 Q 635.244 2.393 635.296 2.908 A 0.933 0.933 0 0 1 635.3 3.001 A 0.792 0.792 0 0 1 635.233 3.308 Q 635.132 3.546 634.883 3.815 A 3.269 3.269 0 0 1 634.8 3.901 Q 634.611 4.089 632.463 6.282 A 7318.209 7318.209 0 0 0 632.2 6.551 Q 629.8 9.001 628.5 10.101 A 9.157 9.157 0 0 0 627.99 10.614 Q 626.591 12.107 622.65 16.901 A 708.979 708.979 0 0 0 620.97 18.951 Q 617.897 22.719 617.033 23.913 A 11.228 11.228 0 0 0 616.9 24.101 A 245.932 245.932 0 0 1 614.795 26.416 Q 612.913 28.463 610.6 30.901 L 605.2 36.501 Q 604.7 35.801 608.7 40.601 A 98.092 98.092 0 0 0 611.342 43.683 Q 612.625 45.116 613.839 46.338 A 59.605 59.605 0 0 0 614 46.501 A 15.93 15.93 0 0 1 614.516 47.051 Q 615.682 48.343 618.627 51.857 A 791.2 791.2 0 0 1 620 53.501 A 1139.973 1139.973 0 0 0 621.511 55.268 Q 626.488 61.076 627.1 61.601 Q 628.1 62.501 632.5 67.801 L 634.5 70.201 A 1.709 1.709 0 0 1 634.686 70.507 Q 634.789 70.731 634.799 70.954 A 1.068 1.068 0 0 1 634.8 71.001 A 0.623 0.623 0 0 1 634.43 71.573 Q 634.006 71.801 633.1 71.801 L 620.2 72.101 A 6.045 6.045 0 0 1 619.283 72.035 Q 618.772 71.956 618.344 71.785 A 3.55 3.55 0 0 1 618.15 71.701 Q 617.3 71.301 616.3 70.301 A 4.718 4.718 0 0 1 615.912 69.898 Q 614.967 68.837 612.288 65.374 A 488.731 488.731 0 0 1 611 63.701 A 245.149 245.149 0 0 0 609.53 61.719 Q 607.522 59.043 606.426 57.777 A 17.182 17.182 0 0 0 606 57.301 Q 604.2 55.701 600.7 51.401 Z M 106 68.251 A 9.479 9.479 0 0 0 109.17 71.017 Q 114.102 73.801 124.3 73.801 A 57.649 57.649 0 0 0 129.962 73.536 Q 133.878 73.149 137.146 72.196 A 25.483 25.483 0 0 0 144.2 69.001 A 15.293 15.293 0 0 0 150.549 60.633 A 20.226 20.226 0 0 0 151.4 54.601 A 34.501 34.501 0 0 0 150.995 49.22 A 26.146 26.146 0 0 0 147.25 39.101 A 34.243 34.243 0 0 0 146.35 37.76 Q 144.718 35.451 142.911 33.754 A 17.833 17.833 0 0 0 137.75 30.301 A 4567.371 4567.371 0 0 0 137.164 30.049 Q 132.372 27.989 131.9 27.801 Q 126.6 25.601 123.4 23.201 A 7.637 7.637 0 0 1 120.669 19.514 A 9.242 9.242 0 0 1 120.2 16.501 Q 120.2 13.647 120.957 12.119 A 3.262 3.262 0 0 1 122 10.851 A 6.093 6.093 0 0 1 122.473 10.553 Q 123.433 10.01 124.641 9.776 A 10.325 10.325 0 0 1 126.6 9.601 Q 130.1 9.601 133.9 12.101 A 63.246 63.246 0 0 1 137.263 14.479 A 79.936 79.936 0 0 1 141.7 18.101 A 17.41 17.41 0 0 1 142.277 18.532 A 21.591 21.591 0 0 1 143.15 19.251 Q 143.748 19.769 143.996 19.874 A 0.281 0.281 0 0 0 144.1 19.901 A 2.024 2.024 0 0 0 144.359 19.885 Q 144.67 19.845 144.85 19.701 A 1.72 1.72 0 0 0 144.901 19.658 Q 145.135 19.456 145.45 19.051 Q 145.8 18.601 146.1 18.201 A 10.112 10.112 0 0 0 146.371 17.876 Q 147.011 17.08 147.95 15.651 A 244.698 244.698 0 0 1 148.128 15.38 Q 149.14 13.845 149.6 13.201 A 5.203 5.203 0 0 1 149.617 13.167 Q 149.72 12.965 149.95 12.551 A 3.492 3.492 0 0 0 149.977 12.502 Q 150.119 12.235 150.171 12.023 A 0.946 0.946 0 0 0 150.2 11.801 A 1.16 1.16 0 0 0 150.059 11.242 A 1.474 1.474 0 0 0 149.8 10.901 A 33.161 33.161 0 0 0 147.578 8.883 Q 146.048 7.609 144.153 6.287 A 76.028 76.028 0 0 0 140.25 3.751 Q 136.406 1.407 131.254 0.528 A 39.603 39.603 0 0 0 124.6 0.001 A 13.485 13.485 0 0 0 121.964 0.277 Q 120.441 0.581 118.75 1.219 A 31.792 31.792 0 0 0 115.45 2.701 Q 110.2 5.401 106.45 10.201 Q 102.7 15.001 102.7 21.001 A 18.527 18.527 0 0 0 102.81 23.043 A 14.629 14.629 0 0 0 105 29.401 A 24.747 24.747 0 0 0 106.664 31.71 A 19.805 19.805 0 0 0 110.3 35.201 Q 113.3 37.401 117.5 39.701 Q 119.1 40.501 120.9 41.701 A 55.019 55.019 0 0 1 123.772 43.894 Q 131.8 50.479 131.8 56.401 A 11.329 11.329 0 0 1 131.8 56.472 Q 131.775 60.413 129 61.851 A 12.507 12.507 0 0 1 125.638 63.003 A 16.8 16.8 0 0 1 122.4 63.301 A 17.416 17.416 0 0 1 114.263 61.329 A 21.418 21.418 0 0 1 109 57.401 A 6.657 6.657 0 0 1 108.921 57.32 Q 108.673 57.064 108.355 56.685 A 24.134 24.134 0 0 1 108 56.251 Q 107.4 55.501 106.9 55.501 A 0.838 0.838 0 0 0 106.635 55.544 Q 106.367 55.633 106.1 55.901 A 58.261 58.261 0 0 0 104.589 57.466 Q 103.897 58.211 103.336 58.88 A 23.219 23.219 0 0 0 102.3 60.201 A 17.492 17.492 0 0 0 102.29 60.213 Q 101.5 61.202 101.5 61.501 A 1.258 1.258 0 0 0 101.509 61.651 Q 101.56 62.076 101.9 62.501 A 1.17 1.17 0 0 1 101.972 62.588 Q 102.404 63.143 105.083 66.947 A 1569.444 1569.444 0 0 1 106 68.251 Z M 0.7 71.101 L 0.8 68.801 L 0.6 63.001 Q 0 52.601 0 44.901 A 84.108 84.108 0 0 1 0.018 43.11 Q 0.069 40.724 0.268 39.573 A 6.767 6.767 0 0 1 0.3 39.401 A 13.16 13.16 0 0 0 0.47 38.143 Q 0.774 34.996 0.798 26.754 A 498.497 498.497 0 0 0 0.8 25.301 Q 0.8 16.036 0.566 10.231 A 135.442 135.442 0 0 0 0.4 7.001 Q 0.31 6.278 0.301 5.066 A 36.807 36.807 0 0 1 0.3 4.801 Q 0.3 3.551 0.483 2.851 A 2.486 2.486 0 0 1 0.6 2.501 A 2.968 2.968 0 0 1 0.734 2.225 Q 0.884 1.955 1.047 1.838 A 0.456 0.456 0 0 1 1.25 1.751 A 3.284 3.284 0 0 1 1.458 1.729 Q 1.823 1.701 2.5 1.701 L 4.7 1.501 Q 11.6 0.701 15.7 0.701 A 34.725 34.725 0 0 1 22.121 1.255 Q 28.655 2.486 32.55 6.451 A 19.443 19.443 0 0 1 37.967 17.805 A 26.857 26.857 0 0 1 38.2 21.401 A 23.09 23.09 0 0 1 35.215 32.654 A 29.543 29.543 0 0 1 33.5 35.401 Q 31.5 38.301 28.9 40.601 L 35.9 53.301 Q 42.741 65.561 44.53 68.349 A 12.688 12.688 0 0 0 44.9 68.901 A 28.839 28.839 0 0 1 45.376 69.673 Q 46.087 70.872 46.251 71.485 A 1.251 1.251 0 0 1 46.3 71.801 A 0.468 0.468 0 0 1 46.239 72.044 Q 46.125 72.236 45.8 72.301 A 6.28 6.28 0 0 1 45.45 72.361 Q 45.284 72.384 45.139 72.394 A 2.879 2.879 0 0 1 44.95 72.401 L 44.4 72.401 L 33.1 72.701 A 1.45 1.45 0 0 1 32.437 72.552 Q 32.146 72.405 31.928 72.114 A 1.94 1.94 0 0 1 31.85 72.001 Q 31.404 71.306 30.613 69.53 A 61.957 61.957 0 0 1 30.6 69.501 Q 30.149 68.146 29.045 65.977 A 59.852 59.852 0 0 0 28.8 65.501 Q 27.159 62.547 23.565 55.351 A 1047.942 1047.942 0 0 1 21.9 52.001 L 16.8 42.101 L 17.1 47.401 L 17.6 55.001 Q 18.2 68.401 18.6 69.801 A 2.935 2.935 0 0 1 18.661 70.129 Q 18.684 70.305 18.694 70.509 A 6.327 6.327 0 0 1 18.7 70.801 A 2.45 2.45 0 0 1 18.603 71.524 Q 18.27 72.601 16.8 72.601 A 5.962 5.962 0 0 1 16.386 72.587 Q 16.053 72.564 15.8 72.501 A 5.489 5.489 0 0 0 15.46 72.47 Q 13.889 72.373 9.57 72.755 A 188.387 188.387 0 0 0 8 72.901 A 330.933 330.933 0 0 1 6.541 73.036 Q 3.631 73.301 2.9 73.301 Q 1.869 73.301 1.372 72.986 A 1.06 1.06 0 0 1 1.15 72.801 A 1.427 1.427 0 0 1 0.886 72.354 Q 0.725 71.938 0.704 71.306 A 5.922 5.922 0 0 1 0.7 71.101 Z M 531.5 71.101 L 531.6 68.801 L 531.4 63.001 Q 530.8 52.601 530.8 44.901 A 84.108 84.108 0 0 1 530.818 43.11 Q 530.869 40.724 531.068 39.573 A 6.767 6.767 0 0 1 531.1 39.401 A 13.16 13.16 0 0 0 531.27 38.143 Q 531.574 34.996 531.598 26.754 A 498.497 498.497 0 0 0 531.6 25.301 Q 531.6 16.036 531.366 10.231 A 135.442 135.442 0 0 0 531.2 7.001 Q 531.11 6.278 531.101 5.066 A 36.807 36.807 0 0 1 531.1 4.801 Q 531.1 3.551 531.283 2.851 A 2.486 2.486 0 0 1 531.4 2.501 A 2.968 2.968 0 0 1 531.534 2.225 Q 531.684 1.955 531.847 1.838 A 0.456 0.456 0 0 1 532.05 1.751 A 3.284 3.284 0 0 1 532.258 1.729 Q 532.623 1.701 533.3 1.701 L 535.5 1.501 Q 542.4 0.701 546.5 0.701 A 34.725 34.725 0 0 1 552.921 1.255 Q 559.455 2.486 563.35 6.451 A 19.443 19.443 0 0 1 568.767 17.805 A 26.857 26.857 0 0 1 569 21.401 A 23.09 23.09 0 0 1 566.015 32.654 A 29.543 29.543 0 0 1 564.3 35.401 Q 562.3 38.301 559.7 40.601 L 566.7 53.301 Q 573.541 65.561 575.33 68.349 A 12.688 12.688 0 0 0 575.7 68.901 A 28.839 28.839 0 0 1 576.176 69.673 Q 576.887 70.872 577.051 71.485 A 1.251 1.251 0 0 1 577.1 71.801 A 0.468 0.468 0 0 1 577.039 72.044 Q 576.925 72.236 576.6 72.301 A 6.28 6.28 0 0 1 576.25 72.361 Q 576.084 72.384 575.939 72.394 A 2.879 2.879 0 0 1 575.75 72.401 L 575.2 72.401 L 563.9 72.701 A 1.45 1.45 0 0 1 563.237 72.552 Q 562.946 72.405 562.728 72.114 A 1.94 1.94 0 0 1 562.65 72.001 Q 562.204 71.306 561.413 69.53 A 61.957 61.957 0 0 1 561.4 69.501 Q 560.949 68.146 559.845 65.977 A 59.852 59.852 0 0 0 559.6 65.501 Q 557.959 62.547 554.365 55.351 A 1047.942 1047.942 0 0 1 552.7 52.001 L 547.6 42.101 L 547.9 47.401 L 548.4 55.001 Q 549 68.401 549.4 69.801 A 2.935 2.935 0 0 1 549.461 70.129 Q 549.484 70.305 549.494 70.509 A 6.327 6.327 0 0 1 549.5 70.801 A 2.45 2.45 0 0 1 549.403 71.524 Q 549.07 72.601 547.6 72.601 A 5.962 5.962 0 0 1 547.186 72.587 Q 546.853 72.564 546.6 72.501 A 5.489 5.489 0 0 0 546.26 72.47 Q 544.689 72.373 540.37 72.755 A 188.387 188.387 0 0 0 538.8 72.901 A 330.933 330.933 0 0 1 537.341 73.036 Q 534.431 73.301 533.7 73.301 Q 532.669 73.301 532.172 72.986 A 1.06 1.06 0 0 1 531.95 72.801 A 1.427 1.427 0 0 1 531.686 72.354 Q 531.525 71.938 531.504 71.306 A 5.922 5.922 0 0 1 531.5 71.101 Z M 359.7 68.301 L 359.8 65.701 L 359.6 60.701 L 359.5 56.201 L 359.4 53.201 A 128.479 128.479 0 0 1 359.113 48.018 Q 359.014 45.296 359.002 42.271 A 213.219 213.219 0 0 1 359 41.401 Q 359 37.912 359.32 32.423 A 317.42 317.42 0 0 1 359.4 31.101 Q 359.758 25.376 359.796 21.491 A 91.723 91.723 0 0 0 359.8 20.601 L 359.7 7.201 A 49.103 49.103 0 0 1 359.626 5.529 Q 359.602 4.673 359.6 3.727 A 79.187 79.187 0 0 1 359.6 3.601 Q 359.6 2.501 361.05 2.251 A 14.627 14.627 0 0 1 363.244 2.045 Q 363.667 2.037 364.1 2.051 A 217.261 217.261 0 0 0 364.795 2.071 Q 365.596 2.094 366.052 2.099 A 21.783 21.783 0 0 0 366.3 2.101 L 369.9 1.901 Q 373.657 1.722 376.134 1.703 A 74.378 74.378 0 0 1 376.7 1.701 A 26.184 26.184 0 0 1 383.407 2.618 Q 386.274 3.377 389.296 4.763 A 44.227 44.227 0 0 1 389.7 4.951 A 23.811 23.811 0 0 1 396.34 9.701 Q 398.63 11.98 400.674 15.031 A 45.116 45.116 0 0 1 401.8 16.801 A 32.032 32.032 0 0 1 405.215 24.985 Q 407 31.529 407 40.201 A 45.084 45.084 0 0 1 406.372 47.987 Q 404.988 55.869 400.55 60.651 Q 394.1 67.601 387 69.551 A 72.362 72.362 0 0 1 382.797 70.579 Q 380.614 71.04 378.715 71.27 A 29.323 29.323 0 0 1 375.2 71.501 L 367 71.601 A 85.077 85.077 0 0 1 365.209 71.661 Q 363.6 71.701 361.6 71.701 A 1.565 1.565 0 0 1 360.104 70.713 Q 359.7 69.868 359.7 68.301 Z M 64.116 72.947 A 25.94 25.94 0 0 0 71.4 73.901 A 15.424 15.424 0 0 0 78.885 72.065 A 17.239 17.239 0 0 0 83.7 68.101 A 33.324 33.324 0 0 0 87.816 62.081 A 41.048 41.048 0 0 0 91.1 53.851 Q 93.5 45.401 93.5 37.401 Q 93.5 27.501 92.1 19.651 Q 90.7 11.801 85.7 6.051 A 15.013 15.013 0 0 0 82.722 3.422 Q 80.042 1.625 76.462 0.862 A 27.677 27.677 0 0 0 70.7 0.301 A 17.872 17.872 0 0 0 64.998 1.258 A 23.433 23.433 0 0 0 60.25 3.501 A 16.994 16.994 0 0 0 57.289 5.809 Q 55.49 7.548 53.918 9.967 A 36.448 36.448 0 0 0 51.35 14.701 A 33.679 33.679 0 0 0 49.431 20.195 Q 48.545 23.599 48.112 27.663 A 78.986 78.986 0 0 0 47.7 36.001 A 79.865 79.865 0 0 0 47.729 38.146 A 69.895 69.895 0 0 0 52.4 61.851 A 24.864 24.864 0 0 0 52.507 62.12 Q 55.908 70.55 64.116 72.947 Z M 264.716 72.947 A 25.94 25.94 0 0 0 272 73.901 A 15.424 15.424 0 0 0 279.485 72.065 A 17.239 17.239 0 0 0 284.3 68.101 A 33.324 33.324 0 0 0 288.416 62.081 A 41.048 41.048 0 0 0 291.7 53.851 Q 294.1 45.401 294.1 37.401 Q 294.1 27.501 292.7 19.651 Q 291.3 11.801 286.3 6.051 A 15.013 15.013 0 0 0 283.322 3.422 Q 280.642 1.625 277.062 0.862 A 27.677 27.677 0 0 0 271.3 0.301 A 17.872 17.872 0 0 0 265.598 1.258 A 23.433 23.433 0 0 0 260.85 3.501 A 16.994 16.994 0 0 0 257.889 5.809 Q 256.09 7.548 254.518 9.967 A 36.448 36.448 0 0 0 251.95 14.701 A 33.679 33.679 0 0 0 250.031 20.195 Q 249.145 23.599 248.712 27.663 A 78.986 78.986 0 0 0 248.3 36.001 A 79.865 79.865 0 0 0 248.329 38.146 A 69.895 69.895 0 0 0 253 61.851 A 24.864 24.864 0 0 0 253.107 62.12 Q 256.508 70.55 264.716 72.947 Z M 319.116 72.947 A 25.94 25.94 0 0 0 326.4 73.901 A 15.424 15.424 0 0 0 333.885 72.065 A 17.239 17.239 0 0 0 338.7 68.101 A 33.324 33.324 0 0 0 342.816 62.081 A 41.048 41.048 0 0 0 346.1 53.851 Q 348.5 45.401 348.5 37.401 Q 348.5 27.501 347.1 19.651 Q 345.7 11.801 340.7 6.051 A 15.013 15.013 0 0 0 337.722 3.422 Q 335.042 1.625 331.462 0.862 A 27.677 27.677 0 0 0 325.7 0.301 A 17.872 17.872 0 0 0 319.998 1.258 A 23.433 23.433 0 0 0 315.25 3.501 A 16.994 16.994 0 0 0 312.289 5.809 Q 310.49 7.548 308.918 9.967 A 36.448 36.448 0 0 0 306.35 14.701 A 33.679 33.679 0 0 0 304.431 20.195 Q 303.545 23.599 303.112 27.663 A 78.986 78.986 0 0 0 302.7 36.001 A 79.865 79.865 0 0 0 302.729 38.146 A 69.895 69.895 0 0 0 307.4 61.851 A 24.864 24.864 0 0 0 307.507 62.12 Q 310.908 70.55 319.116 72.947 Z M 491.016 72.947 A 25.94 25.94 0 0 0 498.3 73.901 A 15.424 15.424 0 0 0 505.785 72.065 A 17.239 17.239 0 0 0 510.6 68.101 A 33.324 33.324 0 0 0 514.716 62.081 A 41.048 41.048 0 0 0 518 53.851 Q 520.4 45.401 520.4 37.401 Q 520.4 27.501 519 19.651 Q 517.6 11.801 512.6 6.051 A 15.013 15.013 0 0 0 509.622 3.422 Q 506.942 1.625 503.362 0.862 A 27.677 27.677 0 0 0 497.6 0.301 A 17.872 17.872 0 0 0 491.898 1.258 A 23.433 23.433 0 0 0 487.15 3.501 A 16.994 16.994 0 0 0 484.189 5.809 Q 482.39 7.548 480.818 9.967 A 36.448 36.448 0 0 0 478.25 14.701 A 33.679 33.679 0 0 0 476.331 20.195 Q 475.445 23.599 475.012 27.663 A 78.986 78.986 0 0 0 474.6 36.001 A 79.865 79.865 0 0 0 474.629 38.146 A 69.895 69.895 0 0 0 479.3 61.851 A 24.864 24.864 0 0 0 479.407 62.12 Q 482.808 70.55 491.016 72.947 Z M 376.9 50.301 A 17.91 17.91 0 0 0 381.172 47.395 A 20.749 20.749 0 0 0 381.9 46.701 A 16.539 16.539 0 0 0 385.53 41.717 A 15.095 15.095 0 0 0 386.9 35.301 A 13.34 13.34 0 0 0 385.981 30.267 A 12.278 12.278 0 0 0 382.1 25.201 Q 380 23.601 377.4 22.801 Q 377.6 25.001 377.6 26.201 Q 377.6 27.655 377.483 30.106 A 207.662 207.662 0 0 1 377.4 31.701 Q 377.2 35.101 377.2 36.701 Q 377.2 39.203 377.015 44.672 A 727.885 727.885 0 0 1 377 45.101 Q 376.9 46.801 376.9 50.301 Z M 70.6 48.501 Q 73.3 48.501 74.6 45.501 Q 75.9 42.501 75.9 38.301 Q 75.9 34.301 74.65 31.301 A 8.335 8.335 0 0 0 74.017 30.059 Q 73.636 29.455 73.196 29.058 A 2.758 2.758 0 0 0 71.3 28.301 A 3.227 3.227 0 0 0 68.745 29.549 Q 68.309 30.066 67.951 30.797 A 9.632 9.632 0 0 0 67.55 31.751 A 21.159 21.159 0 0 0 66.344 37.72 A 24.66 24.66 0 0 0 66.3 39.201 Q 66.3 42.081 66.695 44.222 A 14.93 14.93 0 0 0 67.1 45.901 A 4.319 4.319 0 0 0 67.719 47.183 Q 68.678 48.501 70.6 48.501 Z M 271.2 48.501 Q 273.9 48.501 275.2 45.501 Q 276.5 42.501 276.5 38.301 Q 276.5 34.301 275.25 31.301 A 8.335 8.335 0 0 0 274.617 30.059 Q 274.236 29.455 273.796 29.058 A 2.758 2.758 0 0 0 271.9 28.301 A 3.227 3.227 0 0 0 269.345 29.549 Q 268.909 30.066 268.551 30.797 A 9.632 9.632 0 0 0 268.15 31.751 A 21.159 21.159 0 0 0 266.944 37.72 A 24.66 24.66 0 0 0 266.9 39.201 Q 266.9 42.081 267.295 44.222 A 14.93 14.93 0 0 0 267.7 45.901 A 4.319 4.319 0 0 0 268.319 47.183 Q 269.278 48.501 271.2 48.501 Z M 325.6 48.501 Q 328.3 48.501 329.6 45.501 Q 330.9 42.501 330.9 38.301 Q 330.9 34.301 329.65 31.301 A 8.335 8.335 0 0 0 329.017 30.059 Q 328.636 29.455 328.196 29.058 A 2.758 2.758 0 0 0 326.3 28.301 A 3.227 3.227 0 0 0 323.745 29.549 Q 323.309 30.066 322.951 30.797 A 9.632 9.632 0 0 0 322.55 31.751 A 21.159 21.159 0 0 0 321.344 37.72 A 24.66 24.66 0 0 0 321.3 39.201 Q 321.3 42.081 321.695 44.222 A 14.93 14.93 0 0 0 322.1 45.901 A 4.319 4.319 0 0 0 322.719 47.183 Q 323.678 48.501 325.6 48.501 Z M 497.5 48.501 Q 500.2 48.501 501.5 45.501 Q 502.8 42.501 502.8 38.301 Q 502.8 34.301 501.55 31.301 A 8.335 8.335 0 0 0 500.917 30.059 Q 500.536 29.455 500.096 29.058 A 2.758 2.758 0 0 0 498.2 28.301 A 3.227 3.227 0 0 0 495.645 29.549 Q 495.209 30.066 494.851 30.797 A 9.632 9.632 0 0 0 494.45 31.751 A 21.159 21.159 0 0 0 493.244 37.72 A 24.66 24.66 0 0 0 493.2 39.201 Q 493.2 42.081 493.595 44.222 A 14.93 14.93 0 0 0 494 45.901 A 4.319 4.319 0 0 0 494.619 47.183 Q 495.578 48.501 497.5 48.501 Z M 16.2 27.101 L 16.1 28.001 L 16.2 28.801 Q 17.7 28.801 18.9 28.201 Q 21.622 26.937 21.698 23.121 A 11.111 11.111 0 0 0 21.7 22.901 Q 21.7 20.291 20.971 18.896 A 3.799 3.799 0 0 0 20.8 18.601 A 3.691 3.691 0 0 0 20.189 17.862 A 2.43 2.43 0 0 0 18.5 17.201 A 2.591 2.591 0 0 0 16.625 17.976 A 3.269 3.269 0 0 0 16.6 18.001 A 0.115 0.115 0 0 0 16.576 18.05 Q 16.517 18.268 16.592 19.3 A 29.978 29.978 0 0 0 16.6 19.401 Q 16.7 20.701 16.7 22.001 Q 16.7 22.83 16.643 23.318 A 3.545 3.545 0 0 1 16.6 23.601 Q 16.2 25.301 16.2 27.101 Z M 547 27.101 L 546.9 28.001 L 547 28.801 Q 548.5 28.801 549.7 28.201 Q 552.422 26.937 552.498 23.121 A 11.111 11.111 0 0 0 552.5 22.901 Q 552.5 20.291 551.771 18.896 A 3.799 3.799 0 0 0 551.6 18.601 A 3.691 3.691 0 0 0 550.989 17.862 A 2.43 2.43 0 0 0 549.3 17.201 A 2.591 2.591 0 0 0 547.425 17.976 A 3.269 3.269 0 0 0 547.4 18.001 A 0.115 0.115 0 0 0 547.376 18.05 Q 547.317 18.268 547.392 19.3 A 29.978 29.978 0 0 0 547.4 19.401 Q 547.5 20.701 547.5 22.001 Q 547.5 22.83 547.443 23.318 A 3.545 3.545 0 0 1 547.4 23.601 Q 547 25.301 547 27.101 Z" vector-effect="non-scaling-stroke"/></g></svg>